<svg width="24" height="24" viewBox="0 0 24 24" fill="none" xmlns="http://www.w3.org/2000/svg">
<path d="M11.8883 17.0315C11.8043 16.8985 11.3369 16.8609 9.17104 16.8159C6.55503 16.7601 6.55503 16.7601 5.47804 16.3139C-1.07114 13.5949 -0.233241 3.63277 6.66273 2.22662C7.98635 1.9574 15.4747 1.91557 17.0525 2.1687C21.7524 2.92272 24.4126 8.41863 22.222 12.8495C21.4487 14.4154 21.172 14.6589 16.4267 17.9657C14.0315 19.6346 12.0552 21 12.0337 21C12.0111 21 11.9928 20.143 11.9917 19.0962C11.9917 18.0493 11.9443 17.1205 11.8883 17.0315ZM6.55654 9.49871C6.55654 9.86213 6.7015 10.2107 6.95953 10.4676C7.21757 10.7246 7.56754 10.869 7.93245 10.869C8.29736 10.869 8.64733 10.7246 8.90536 10.4676C9.1634 10.2107 9.30836 9.86213 9.30836 9.49871C9.30836 9.1353 9.1634 8.78676 8.90536 8.52978C8.64733 8.27281 8.29736 8.12844 7.93245 8.12844C7.56754 8.12844 7.21757 8.27281 6.95953 8.52978C6.7015 8.78676 6.55654 9.1353 6.55654 9.49871ZM10.5735 9.47691C10.5735 9.8305 10.7145 10.1696 10.9656 10.4196C11.2167 10.6697 11.5572 10.8101 11.9122 10.8101C12.2672 10.8101 12.6077 10.6697 12.8588 10.4196C13.1099 10.1696 13.2509 9.8305 13.2509 9.47691C13.2509 9.12332 13.1099 8.78421 12.8588 8.53418C12.6077 8.28416 12.2672 8.14369 11.9122 8.14369C11.5572 8.14369 11.2167 8.28416 10.9656 8.53418C10.7145 8.78421 10.5735 9.12332 10.5735 9.47691ZM14.6126 9.48355C14.6111 9.66067 14.6447 9.83636 14.7117 10.0005C14.7786 10.1646 14.8776 10.3138 15.0028 10.4396C15.128 10.5654 15.277 10.6653 15.4411 10.7335C15.6053 10.8016 15.7814 10.8367 15.9593 10.8367C16.1371 10.8367 16.3132 10.8016 16.4774 10.7335C16.6416 10.6653 16.7905 10.5654 16.9157 10.4396C17.041 10.3138 17.1399 10.1646 17.2069 10.0005C17.2738 9.83636 17.3075 9.66067 17.3059 9.48355C17.3075 9.30642 17.2738 9.13074 17.2069 8.96664C17.1399 8.80254 17.041 8.65328 16.9157 8.52747C16.7905 8.40166 16.6416 8.30179 16.4774 8.23364C16.3132 8.16549 16.1371 8.1304 15.9593 8.1304C15.7814 8.1304 15.6053 8.16549 15.4411 8.23364C15.277 8.30179 15.128 8.40166 15.0028 8.52747C14.8776 8.65328 14.7786 8.80254 14.7117 8.96664C14.6447 9.13074 14.6111 9.30642 14.6126 9.48355Z" fill="#666666"/>
</svg>
