<svg width="24" height="24" viewBox="0 0 24 24" fill="none" xmlns="http://www.w3.org/2000/svg">
<path fill-rule="evenodd" clip-rule="evenodd" d="M6.54541 6.5C6.54541 4.567 8.11241 3 10.0454 3H13.9545C15.8875 3 17.4545 4.567 17.4545 6.5V7.50001H22V11.8C22 12.9046 21.1046 13.8 20 13.8H4C2.89543 13.8 2 12.9046 2 11.8V7.50001H6.54541V6.5ZM15.6363 7.50001H8.36353V5.80001C8.36353 5.24772 8.81124 4.80001 9.36353 4.80001H14.6363C15.1885 4.80001 15.6363 5.24772 15.6363 5.80001V7.50001ZM2 12.7V19C2 20.1046 2.89543 21 4 21H20C21.1046 21 22 20.1046 22 19V12.7C22 13.8046 21.1046 14.7 20 14.7H4C2.89543 14.7 2 13.8046 2 12.7Z" fill="#666666"/>
</svg>
