<svg width="24" height="24" viewBox="0 0 24 24" fill="none" xmlns="http://www.w3.org/2000/svg">
<path fill-rule="evenodd" clip-rule="evenodd" d="M12.9 6.26087C12.9 9.16637 10.6838 11.5217 7.95 11.5217C5.21619 11.5217 3 9.16637 3 6.26087C3 3.35537 5.21619 1 7.95 1C10.6838 1 12.9 3.35537 12.9 6.26087ZM7.95 12.4783C5.21619 12.4783 3 14.6945 3 17.4283V23H12.9V17.4283C12.9 14.6945 10.6838 12.4783 7.95 12.4783ZM17.4 14.3913C15.4118 14.3913 13.8 16.0031 13.8 17.9913V23H21V17.9913C21 16.0031 19.3882 14.3913 17.4 14.3913ZM17.4 13.4348C19.3882 13.4348 21 11.7218 21 9.6087C21 7.49561 19.3882 5.78261 17.4 5.78261C15.4118 5.78261 13.8 7.49561 13.8 9.6087C13.8 11.7218 15.4118 13.4348 17.4 13.4348Z" fill="#666666"/>
</svg>
