<svg width="24" height="24" viewBox="0 0 24 24" fill="none" xmlns="http://www.w3.org/2000/svg">
<g clip-path="url(#clip0_64_14)">
<path d="M15.1071 20.6501L13.2887 18.3723C12.9659 18.4565 12.5926 18.5075 12.169 18.5253C11.7444 18.5429 11.3596 18.5189 11.0146 18.4533L9.33139 20.814L6.04417 19.0155L7.10335 16.3285C6.9838 16.1906 6.86596 16.0446 6.74981 15.8906C6.63253 15.7373 6.52674 15.5836 6.43243 15.4295C6.34474 15.2862 6.26105 15.1303 6.18137 14.9618C6.10055 14.7939 6.01238 14.6032 5.91687 14.3897L3.04327 14.1118L2.95741 10.3986L5.79857 9.96831C5.92352 9.6003 6.0822 9.24018 6.27464 8.88794C6.46593 8.53639 6.67321 8.22821 6.89648 7.9634L5.71049 5.29745L8.89371 3.34939L10.7217 5.64476C11.1189 5.55953 11.4883 5.51439 11.8299 5.50934C12.1715 5.50429 12.5438 5.53207 12.9467 5.59268L14.6889 3.21923L17.9558 4.98456L16.8615 7.75983C17.016 7.90757 17.1412 8.05334 17.237 8.19714C17.3328 8.34094 17.4244 8.4842 17.5118 8.62693C17.5929 8.75942 17.6726 8.9025 17.751 9.05617C17.8303 9.21006 17.9142 9.40335 18.0027 9.63605L20.9197 9.91201L21.0254 13.6576L18.1362 14.0727C18.0074 14.4587 17.8573 14.8136 17.6858 15.1375C17.5142 15.4613 17.3116 15.7592 17.0779 16.0312L18.2895 18.7026L15.1071 20.6501ZM13.2819 14.1465C13.8767 13.7825 14.2543 13.2673 14.4147 12.6009C14.5751 11.9345 14.4733 11.3039 14.1093 10.7091C13.7453 10.1143 13.2301 9.73674 12.5638 9.57633C11.8974 9.41592 11.2668 9.51772 10.672 9.88171C10.0738 10.2478 9.69533 10.7635 9.53662 11.4289C9.37792 12.0942 9.48057 12.7243 9.84457 13.3191C10.2086 13.9139 10.7229 14.292 11.3876 14.4534C12.0523 14.6149 12.6837 14.5126 13.2819 14.1465Z" fill="#666666"/>
</g>
<defs>
<clipPath id="clip0_64_14">
<rect width="24" height="24" fill="white"/>
</clipPath>
</defs>
</svg>
