<svg width="16" height="16" viewBox="0 0 16 16" fill="none" xmlns="http://www.w3.org/2000/svg">
<path d="M4.67822 9.60743C4.78417 9.60743 4.93622 9.63095 5.37378 9.91703C5.65736 10.1026 5.92645 10.3102 6.17864 10.5381L6.16526 13.1467C6.91845 13.1353 7.51586 13.1398 7.93261 13.1467C8.34935 13.1535 8.77018 13.1277 9.18915 13.1228C9.4504 13.1237 9.71091 13.0946 9.96576 13.0359C10.1028 13.0037 10.2378 12.9629 10.3699 12.9137C10.3699 13.1319 10.3985 13.9431 11.0048 14.631C11.2988 14.9617 11.6732 15.2074 12.09 15.3431C11.5645 15.5723 11.016 15.742 10.4543 15.8493C9.95348 15.9432 9.44512 15.9884 8.93599 15.9844C7.79766 15.9912 6.4452 16.0003 4.88864 15.9999C4.53026 15.9999 4.27449 15.924 4.07895 15.8163C3.90292 15.718 3.74655 15.5869 3.61796 15.4297C3.38998 15.1549 3.23734 14.8234 3.17557 14.469L3.17334 10.5025C3.43199 10.2788 3.70717 10.0759 3.99642 9.89541C4.42654 9.62792 4.57525 9.60705 4.67822 9.60743Z" fill="#651FFF"/>
<path d="M4.67822 5.7793C4.33334 5.78131 3.9994 5.90308 3.73135 6.12457L0 8.87424L1.05877 10.3741C1.17862 10.5361 1.35586 10.6437 1.55251 10.6739C1.74917 10.7041 1.94959 10.6545 2.11085 10.5357L4.24958 8.96909C4.38443 8.87257 4.54631 8.82327 4.71094 8.82861C4.87556 8.83395 5.03405 8.89362 5.16263 8.99869C5.42286 9.18461 6.2121 9.75753 7.28165 10.5611C7.43859 10.6632 7.62698 10.7022 7.81048 10.6708C7.99398 10.6395 8.15959 10.5398 8.27537 10.3912L9.35347 8.87348L5.55929 6.07259C5.30291 5.88313 4.99475 5.78055 4.67822 5.7793V5.7793Z" fill="#00E5FF"/>
<path d="M3.1626 1.62506C3.19977 1.34922 3.31874 0.813859 3.74626 0.431023C4.05961 0.155277 4.45895 0.00246946 4.87269 0L8.9955 0.0110033C10.9376 -0.00796782 12.1874 0.667782 12.7432 1.02558C16.3972 3.37799 16.0035 8.6751 15.9738 9.00633C15.8589 10.2964 15.4247 11.4229 15.379 11.5356C15.1771 12.0497 14.8336 12.9041 14.0756 13.7897C13.7652 14.1524 13.419 14.4814 13.0425 14.7716C12.6043 14.6685 12.2023 14.4445 11.8804 14.124C11.2398 13.479 11.1703 12.6772 11.1584 12.4686C11.379 12.3032 11.5779 12.1096 11.7502 11.8926C11.8635 11.7461 11.9659 11.5913 12.0566 11.4293C13.4674 8.86746 12.5547 5.8651 12.5547 5.8651C12.3075 5.05162 12.0529 4.23662 11.2907 3.61589C10.5101 2.97846 9.63084 2.87943 9.22414 2.86122L6.16456 2.84263L3.1626 2.88664V1.62506Z" fill="#651FFF"/>
</svg>
