<svg width="169" height="40" viewBox="0 0 169 40" fill="none" xmlns="http://www.w3.org/2000/svg">
<g clip-path="url(#clip0_115_3)">
<path d="M9.0864 19.4312C9.2875 19.4312 9.57611 19.4755 10.4066 20.0151C10.9449 20.365 11.4557 20.7566 11.9343 21.1864L11.9089 26.1059C13.3386 26.0845 14.4725 26.0931 15.2635 26.1059C16.0546 26.1188 16.8533 26.0702 17.6486 26.0609C18.1445 26.0626 18.6389 26.0076 19.1227 25.897C19.3828 25.8363 19.639 25.7593 19.8897 25.6666C19.8897 26.078 19.944 27.6079 21.0949 28.9052C21.6529 29.529 22.3635 29.9923 23.1547 30.2483C22.1572 30.6805 21.1161 31.0006 20.0499 31.2029C19.0994 31.38 18.1344 31.4653 17.1681 31.4576C15.0074 31.4705 12.4403 31.4877 9.48579 31.487C8.80555 31.487 8.32008 31.3439 7.94891 31.1406C7.6148 30.9553 7.31799 30.7079 7.07392 30.4115C6.64119 29.8933 6.35147 29.2682 6.23421 28.5997L6.22998 21.1192C6.72093 20.6974 7.24324 20.3146 7.79226 19.9743C8.60868 19.4698 8.89094 19.4304 9.0864 19.4312Z" fill="#651FFF"/>
<path d="M9.08652 12.2104C8.4319 12.2143 7.79805 12.4439 7.28926 12.8616L0.206787 18.0473L2.21644 20.8759C2.44393 21.1814 2.78035 21.3843 3.15361 21.4413C3.52688 21.4983 3.90731 21.4048 4.21339 21.1808L8.27292 18.2262C8.52887 18.0441 8.83614 17.9512 9.14861 17.9612C9.46109 17.9713 9.76192 18.0839 10.006 18.282C10.4999 18.6326 11.998 19.7131 14.0281 21.2287C14.326 21.4211 14.6836 21.4948 15.0319 21.4356C15.3802 21.3764 15.6945 21.1885 15.9143 20.9081L17.9606 18.0459L10.7589 12.7636C10.2722 12.4063 9.68732 12.2128 9.08652 12.2104Z" fill="#00E5FF"/>
<path d="M6.20972 4.37628C6.28028 3.85607 6.50608 2.84641 7.31757 2.1244C7.91234 1.60436 8.67033 1.31618 9.45565 1.31152L17.2812 1.33227C20.9674 1.2965 23.3398 2.57092 24.3947 3.24569C31.3304 7.68219 30.5831 17.6722 30.5267 18.2969C30.3086 20.7298 29.4844 22.8543 29.3976 23.0668C29.0145 24.0364 28.3625 25.6478 26.9237 27.318C26.3345 28.0019 25.6774 28.6225 24.9627 29.1698C24.131 28.9754 23.3679 28.5528 22.7569 27.9484C21.5411 26.7319 21.4091 25.2199 21.3866 24.8264C21.8053 24.5145 22.1828 24.1495 22.5099 23.7401C22.7249 23.464 22.9192 23.1719 23.0914 22.8664C25.7693 18.035 24.0369 12.3727 24.0369 12.3727C23.5677 10.8385 23.0843 9.30151 21.6378 8.13084C20.1559 6.9287 18.4871 6.74193 17.7151 6.70759L11.9077 6.67253L6.20972 6.75553V4.37628Z" fill="#651FFF"/>
<path d="M51.6929 18.9338C51.8119 19.5034 51.9091 20.1068 51.9844 20.7442L37.0086 23.9714C37.4508 25.2436 38.2505 26.1562 39.4078 26.7091C40.565 27.262 41.8723 27.3813 43.3297 27.0669C44.3361 26.8578 45.2818 26.4172 46.0937 25.7789C46.8991 25.1449 47.44 24.3671 47.7167 23.4454C48.4049 23.6534 49.858 24.0828 52.0761 24.7334C51.5746 26.5362 50.5799 28.0138 49.0919 29.1664C47.604 30.3189 45.8787 31.106 43.9161 31.5277C41.0554 32.1441 38.4394 31.6909 36.068 30.1681C33.6966 28.6454 32.1879 26.3485 31.5421 23.2773C30.898 20.2061 31.3579 17.5062 32.9216 15.1778C34.4853 12.8494 36.6974 11.3767 39.5581 10.7599C42.4178 10.1431 44.9941 10.5834 47.2869 12.0808C49.5798 13.5783 51.0484 15.8626 51.6929 18.9338ZM36.2247 20.4365L46.3202 18.2605C45.8441 16.9667 45.0797 16.0467 44.0269 15.5005C42.9741 14.9543 41.803 14.8203 40.5135 15.0984C39.1389 15.3946 38.061 16.0207 37.2796 16.9767C36.4982 17.9327 36.1466 19.0872 36.2247 20.4401V20.4365Z" fill="#651FFF"/>
<path d="M66.8237 10.9302H72.1456V23.0948C72.1456 28.533 68.0487 31.9606 62.5158 31.9606C56.9829 31.9606 52.886 28.5345 52.886 23.0948V10.9302H58.2079V22.6225C58.2079 25.3631 59.8125 27.162 62.5123 27.162C65.2121 27.162 66.8237 25.3631 66.8237 22.6225V10.9302Z" fill="#651FFF"/>
<path d="M73.1415 10.9302H78.4627V12.9002C80.1529 11.1871 82.3914 10.3306 85.1782 10.3306C91.0491 10.3306 94.9351 15.0848 94.9351 21.2071C94.9351 27.3295 91.0491 32 85.1782 32C82.6443 32 80.1104 31.2286 78.4627 29.6873V39.9284L75.7813 39.9671C75.1293 39.9428 74.5058 39.6899 74.0172 39.2515C73.1648 38.4751 73.1069 37.439 73.0999 37.2479L73.1415 10.9302ZM84.0789 15.2987C80.6579 15.2987 78.673 17.7395 78.673 21.2093C78.673 24.5925 80.7003 27.034 84.0789 27.034C87.4575 27.034 89.4417 24.5925 89.4417 21.2093C89.4445 17.7395 87.4589 15.2987 84.0803 15.2987H84.0789Z" fill="#651FFF"/>
<path d="M96.7364 0.894482C97.2197 0.424234 97.8506 0.141087 98.5189 0.0944824H101.227V31.3596H95.9059C95.9002 21.825 95.8948 12.2901 95.8896 2.75495C95.9398 2.05112 96.2408 1.38984 96.7364 0.894482Z" fill="#651FFF"/>
<path d="M113.095 10.2876C119.642 10.2876 124.076 15.0418 124.076 21.0804C124.076 27.205 119.642 31.957 113.095 31.957C106.507 31.957 102.158 27.2028 102.158 21.0804C102.157 15.0418 106.507 10.2876 113.095 10.2876ZM113.095 15.2558C109.674 15.2558 107.562 17.6973 107.562 21.0804C107.562 24.5066 109.674 26.991 113.095 26.991C116.601 26.991 118.713 24.5495 118.713 21.0804C118.713 17.6973 116.601 15.2558 113.095 15.2558Z" fill="#651FFF"/>
<path d="M133.537 10.2876C136.282 10.2876 138.52 11.1441 140.252 12.8572V10.9302H145.573V31.3595H140.252V29.3896C138.563 31.1026 136.324 31.9592 133.537 31.9592C127.751 31.9592 123.781 27.1191 123.781 21.0826C123.781 15.0461 127.751 10.2876 133.537 10.2876ZM134.636 15.2558C131.299 15.2558 129.273 17.6973 129.273 21.0804C129.273 24.5066 131.258 26.991 134.636 26.991C138.013 26.991 140.041 24.5495 140.041 21.0804C140.041 17.6973 138.013 15.2558 134.636 15.2558Z" fill="#651FFF"/>
<path d="M156.299 10.2877C158.833 10.2877 161.367 11.0583 163.014 12.6004V0.0944824H168.336L168.357 28.7299C168.369 28.9066 168.432 30.1167 167.51 31.0197C167.029 31.4811 166.406 31.7593 165.746 31.8068L162.994 31.7353V29.3739C162.154 30.2101 161.16 30.8703 160.068 31.3167C158.423 31.9879 157.026 31.9607 156.299 31.9607C150.428 31.9607 146.542 27.2065 146.542 21.0841C146.542 14.9617 150.431 10.2877 156.299 10.2877ZM157.397 15.2558C154.018 15.2558 152.034 17.6973 152.034 21.0805C152.034 24.5496 154.019 26.9911 157.397 26.9911C160.818 26.9911 162.803 24.5496 162.803 21.0805C162.805 17.6973 160.778 15.2558 157.399 15.2558H157.397Z" fill="#651FFF"/>
</g>
<defs>
<clipPath id="clip0_115_3">
<rect width="169" height="40" fill="white"/>
</clipPath>
</defs>
</svg>
