<svg width="76" height="75" viewBox="0 0 76 75" fill="none" xmlns="http://www.w3.org/2000/svg">
<g id="norton-by-symantec-vector-logo 1">
<path id="Vector" d="M60.456 38.6043C59.3286 38.6043 58.4084 37.6841 58.4084 36.5568C58.4084 35.418 59.3286 34.5092 60.456 34.5092C61.5833 34.5092 62.5035 35.4295 62.5035 36.5568C62.515 37.6841 61.5948 38.6043 60.456 38.6043ZM60.456 32.5537C58.2474 32.5537 56.4529 34.3482 56.4529 36.5568C56.4529 38.7654 58.2474 40.5599 60.456 40.5599C62.6645 40.5599 64.459 38.7654 64.459 36.5568C64.459 34.3367 62.6645 32.5537 60.456 32.5537Z" fill="#E2E4E9"/>
<path id="Vector_2" d="M42.0741 38.6043C40.9468 38.6043 40.0266 37.6841 40.0266 36.5568C40.0266 35.418 40.9468 34.5092 42.0741 34.5092C43.2014 34.5092 44.1217 35.4295 44.1217 36.5568C44.1217 37.6841 43.2014 38.6043 42.0741 38.6043ZM42.0741 32.5537C39.8655 32.5537 38.071 34.3482 38.071 36.5568C38.071 38.7654 39.8655 40.5599 42.0741 40.5599C44.2827 40.5599 46.0772 38.7654 46.0772 36.5568C46.0657 34.3367 44.2827 32.5537 42.0741 32.5537Z" fill="#E2E4E9"/>
<path id="Vector_3" d="M56.1998 38.7194C55.9468 38.7884 55.5557 38.869 55.4176 38.869C54.7274 38.869 54.5894 38.6274 54.5894 37.9832V34.2792H56.2228V32.7378H54.5894V30.5522H52.7489L52.3578 32.7378H51.081H50.9774C49.9307 32.7378 49.1369 33.382 48.6308 34.3828L47.9981 32.7378H46.6753V40.4104H48.9299V37.0745C48.9299 35.395 49.9307 34.3137 51.104 34.2792H52.3348V38.0983C52.3348 39.8927 53.255 40.5599 54.7504 40.5599C55.5211 40.5599 56.1193 40.3989 56.4759 40.2838L56.1998 38.7194Z" fill="#E2E4E9"/>
<path id="Vector_4" d="M67.1968 35.1532V40.4101H64.9998V32.7261H66.3341L66.7827 33.8994" fill="#E2E4E9"/>
<path id="Vector_5" d="M66.7712 33.9111C67.4384 33.1404 68.3472 32.5537 69.4169 32.5537C71.2459 32.5537 71.9936 34.0146 71.9936 35.3605V40.4103H69.739V35.4295C69.739 34.7738 69.1869 34.4172 68.6002 34.4172C67.9676 34.4172 67.565 34.7853 67.2084 35.1649" fill="#E2E4E9"/>
<path id="Vector_6" d="M29.3171 29.9541H31.8363L35.2872 36.5224V29.9541H37.3693V40.4104H35.0917L31.3992 33.175V40.4104H29.3171V29.9541Z" fill="#E2E4E9"/>
<path id="Vector_7" d="M71.9937 32.7378V32.8873H72.2007V33.612H72.3733V32.8873H72.5918V32.7378H71.9937Z" fill="#E2E4E9"/>
<path id="Vector_8" d="M73.2474 32.7378L73.0979 33.3129L72.9369 32.7378H72.7068V33.612H72.8563V32.9218L73.0404 33.612H73.1554L73.3395 32.9218V33.612H73.4775V32.7378H73.2474Z" fill="#E2E4E9"/>
<path id="Vector_9" d="M32.0434 46.5758C32.0434 45.9087 31.8364 45.1264 31.0772 45.1264C30.7206 45.1264 30.3985 45.2875 30.1109 45.5866V47.7837C30.3755 48.0712 30.6171 48.2208 30.9852 48.2208C31.6638 48.2093 32.0434 47.6226 32.0434 46.5758ZM29.9614 48.2093L29.8003 48.7039H29.3862V42.9639H30.1109V45.0574C30.3525 44.7929 30.7436 44.5168 31.2382 44.5168C32.331 44.5168 32.8141 45.5981 32.8141 46.5758C32.8141 47.8872 32.1355 48.7729 31.1232 48.7729C30.5941 48.7729 30.2375 48.5544 29.9614 48.2093Z" fill="#A0A0A0"/>
<path id="Vector_10" d="M33.2744 44.5977H34.0106C34.0106 44.5977 35.0459 48.0601 35.0459 48.0716L36.0121 44.5977H36.7253L35.345 49.0148C35.1034 49.774 34.7008 50.1997 33.9071 50.1997C33.746 50.1997 33.5735 50.1766 33.4125 50.1306L33.5045 49.613C33.608 49.6245 33.7115 49.659 33.8496 49.659C34.2752 49.659 34.5973 49.4635 34.7583 48.9573L33.2744 44.5977Z" fill="#A0A0A0"/>
<path id="Vector_11" d="M38.8762 48.1058L39.2328 47.5996C39.5894 47.8642 40.0955 48.1518 40.8548 48.1518C41.6025 48.1518 42.0396 47.7952 42.0396 47.174C42.0396 46.4838 41.5104 46.2653 40.7512 46.0007C39.9345 45.7131 39.1868 45.345 39.1868 44.2982C39.1868 43.3665 39.923 42.8604 40.8893 42.8604C41.5794 42.8604 41.982 42.9754 42.4307 43.2284L42.1316 43.7806C41.775 43.585 41.3954 43.47 40.8778 43.47C40.2681 43.47 39.854 43.7116 39.854 44.2867C39.854 44.8964 40.2566 45.0919 41.0963 45.391C41.9015 45.6671 42.7528 46.0237 42.7528 47.151C42.7528 48.1518 42.0396 48.7499 40.8663 48.7499C39.9115 48.7729 39.2558 48.4278 38.8762 48.1058Z" fill="#A0A0A0"/>
<path id="Vector_12" d="M43.167 44.5977H43.9032C43.9032 44.5977 44.9385 48.0601 44.9385 48.0716L45.9047 44.5977H46.6179L45.2375 49.0148C44.996 49.774 44.5934 50.1997 43.7997 50.1997C43.6386 50.1997 43.4661 50.1766 43.305 50.1306L43.3971 49.613C43.5006 49.6245 43.6041 49.659 43.7421 49.659C44.1678 49.659 44.4898 49.4635 44.6509 48.9573L43.167 44.5977Z" fill="#A0A0A0"/>
<path id="Vector_13" d="M51.7136 44.5166C52.5419 44.5166 52.7604 45.2183 52.7604 45.897V48.7037H52.0357V45.897C52.0357 45.4944 51.9667 45.1263 51.4721 45.1263C51.1385 45.1263 50.7819 45.3333 50.4253 45.6899V48.7037H49.7006V45.897C49.7006 45.4944 49.6316 45.1263 49.137 45.1263C48.7919 45.1263 48.4238 45.3678 48.0902 45.7014V48.7037H47.3655V44.5971H47.7911L47.9751 45.2643C48.3547 44.8502 48.8149 44.5166 49.367 44.5166C49.9192 44.5166 50.1492 44.8157 50.3103 45.2298C50.6899 44.8042 51.1845 44.5166 51.7136 44.5166Z" fill="#A0A0A0"/>
<path id="Vector_14" d="M56.108 46.5872C55.2913 46.7367 54.7622 46.9092 54.5551 47.1623C54.4516 47.2889 54.4286 47.4039 54.4286 47.5764C54.4286 47.979 54.6241 48.2091 55.0613 48.2091C55.4754 48.2091 55.8435 48.002 56.108 47.8065V46.5872ZM56.108 45.9315C56.108 45.3793 55.9355 45.1033 55.3373 45.1033C54.9232 45.1033 54.5551 45.2643 54.164 45.4599L53.8994 44.9767C54.3251 44.7122 54.7852 44.5166 55.3833 44.5166C56.4071 44.5166 56.8097 45.0687 56.8097 45.989V48.7152H56.3956L56.2116 48.2206C55.924 48.5082 55.4754 48.7728 54.9462 48.7728C54.2215 48.7728 53.6924 48.3241 53.6924 47.6339C53.6924 47.1853 53.8649 46.8632 54.2445 46.6332C54.6126 46.4031 55.2683 46.2421 56.108 46.1155V45.9315Z" fill="#A0A0A0"/>
<path id="Vector_15" d="M58.0173 44.5971H58.443L58.627 45.2758C59.0066 44.8502 59.4897 44.5166 60.0994 44.5166C60.9851 44.5166 61.2152 45.2183 61.2152 45.897V48.7037H60.4905V45.897C60.4905 45.4944 60.387 45.1263 59.8578 45.1263C59.4782 45.1263 59.0756 45.3678 58.742 45.7129V48.7037H58.0173V44.5971Z" fill="#A0A0A0"/>
<path id="Vector_16" d="M61.9858 45.1038V44.5976H62.6185L62.8026 43.4243H63.3202V44.5976H64.2405V45.1038H63.3202V47.6344C63.3202 48.014 63.3892 48.2211 63.7803 48.2211C63.9414 48.2211 64.0679 48.1866 64.252 48.1406L64.3555 48.6352C64.1944 48.7042 63.9414 48.7617 63.6883 48.7617C62.9406 48.7617 62.607 48.4051 62.607 47.669V45.0923H61.9858V45.1038Z" fill="#A0A0A0"/>
<path id="Vector_17" d="M67.4615 46.3686C67.4385 45.5059 67.1509 45.0572 66.5757 45.0572C66.0581 45.0572 65.713 45.4599 65.6555 46.3686H67.4615ZM66.6793 48.1976C67.1509 48.1976 67.45 48.0135 67.7951 47.795L68.0942 48.2321C67.6916 48.5542 67.3234 48.7728 66.6103 48.7728C65.552 48.7728 64.8733 47.956 64.8733 46.6562C64.8733 45.3908 65.529 44.5166 66.5527 44.5166C67.611 44.5166 68.1747 45.3103 68.1747 46.6792V46.8517H65.621C65.6785 47.726 65.9891 48.1976 66.6793 48.1976Z" fill="#A0A0A0"/>
<path id="Vector_18" d="M68.8418 46.6792C68.8418 45.6209 69.3134 44.5166 70.5788 44.5166C71.1079 44.5166 71.499 44.6431 71.8671 44.9537L71.5565 45.4368C71.2919 45.2413 70.9814 45.1033 70.5903 45.1033C69.7275 45.1033 69.601 45.989 69.601 46.6907C69.601 47.3694 69.7505 48.1976 70.6133 48.1976C71.0274 48.1976 71.315 48.0365 71.591 47.8065L71.9361 48.2321C71.637 48.5312 71.2229 48.7842 70.5788 48.7842C69.3249 48.7727 68.8418 47.703 68.8418 46.6792Z" fill="#A0A0A0"/>
<path id="Vector_19" d="M13.7306 31.1961C11.545 31.1961 9.48595 32.0474 7.93304 33.6003C6.38012 35.1532 5.52889 37.2122 5.52889 39.3978C5.52889 41.5834 6.38012 43.6425 7.93304 45.1954C9.48595 46.7483 11.545 47.5995 13.7306 47.5995C15.9162 47.5995 17.9752 46.7483 19.5281 45.1954C21.0695 43.6425 21.9208 41.5834 21.9323 39.3978C21.9323 37.2122 21.081 35.1532 19.5281 33.6003C17.9752 32.0589 15.9162 31.1961 13.7306 31.1961ZM13.7306 51.384C7.12782 51.384 1.74438 46.0006 1.74438 39.3978C1.74438 32.7836 7.12782 27.4116 13.7306 27.4116C20.3333 27.4116 25.7168 32.7836 25.7168 39.3978C25.7168 46.0006 20.3333 51.384 13.7306 51.384Z" fill="#FFC20E"/>
<path id="Vector_20" d="M27.7184 25.5601H26.7866V26.4918H27.7184V25.5601Z" fill="#FFC20E"/>
<path id="Vector_21" d="M27.7184 23.6963H26.7866V24.628H27.7184V23.6963Z" fill="#FFC20E"/>
<path id="Vector_22" d="M25.0381 26.4917H24.1638V27.4004H25.0381V26.4917Z" fill="white"/>
<path id="Vector_23" d="M23.3127 28.2861H22.427V29.1604H23.3127V28.2861Z" fill="#E2E4E9"/>
<path id="Vector_24" d="M26.0044 27.4004H25.0266V28.2746H26.0044V27.4004Z" fill="#E2E4E9"/>
<path id="Vector_25" d="M22.427 27.4463H21.5527V28.286H22.427V27.4463Z" fill="#E2E4E9"/>
<path id="Vector_26" d="M25.0381 28.2861H24.1638V29.1604H25.0381V28.2861Z" fill="#E2E4E9"/>
<path id="Vector_27" d="M26.7867 24.6396H25.8665V25.5714H26.7867V24.6396Z" fill="#E2E4E9"/>
<path id="Vector_28" d="M25.8663 25.5601H24.1638V26.4918H25.8663V25.5601Z" fill="#E2E4E9"/>
<path id="Vector_29" d="M24.164 26.4917H23.3127V28.2862H24.164V26.4917Z" fill="#E2E4E9"/>
<path id="Vector_30" d="M23.3126 29.1602V30.0344H22.4268V29.1602H20.9659V29.7928H20.1837V30.575H21.058V31.4493H20.1837V30.575H19.252V31.9439H18.3777V32.8181H17.7911V33.6924H17.1469C16.4222 34.7621 14.6277 38.098 14.0756 39.4554C12.1086 36.7177 10.5787 35.6364 9.38234 35.2453C8.73816 35.0497 7.95595 35.7514 9.02574 36.8672C11.4989 39.5934 12.2811 41.8365 13.0288 43.6425C13.4314 44.5858 15.2144 44.7353 15.571 43.7691C16.3302 41.733 17.4345 39.4324 18.7458 37.5574V36.5796H19.4475V35.7054H20.1837V34.6816H21.058V33.7039H20.1722V32.8066H21.058V33.7039H21.9207V32.8181H22.6109V31.7483H23.3931V31.0122H24.1408V29.1602H23.3126Z" fill="#E2E4E9"/>
</g>
</svg>
