<svg width="80" height="80" viewBox="0 0 80 80" fill="none" xmlns="http://www.w3.org/2000/svg">
<circle cx="40" cy="40" r="40" fill="#651FFF"/>
<path d="M21.2335 53.5562C17.263 49.5835 17.263 43.1429 21.2335 39.1773L29.1289 31.2179C33.0382 27.3092 39.5351 27.3092 43.4445 31.2179C46.9601 34.7335 47.4804 40.3374 44.5906 44.3804L44.5132 44.4929C43.789 45.4983 42.3828 45.7374 41.3773 45.0132C40.3648 44.289 40.1257 42.8827 40.85 41.8773L40.9273 41.7648C42.5375 39.5077 42.2843 36.421 40.3226 34.4593C38.1148 32.2515 34.5218 32.2515 32.307 34.4593L24.4179 42.3554C22.2024 44.5069 22.2024 48.1562 24.4179 50.371C26.3726 52.3327 29.4664 52.5858 31.7164 50.9757L31.8289 50.8351C32.8414 50.1741 34.2476 50.4062 34.9648 51.4187C35.689 52.4312 35.457 53.8374 34.4445 54.5616L34.332 54.639C30.2257 57.5288 24.7484 57.0648 21.2335 53.5562Z" fill="white"/>
<path opacity="0.4" d="M57.7673 26.4466C61.7399 30.4165 61.7399 36.8571 57.7673 40.8227L49.8712 48.7188C45.8985 52.6915 39.4649 52.6915 35.4923 48.7188C31.9766 45.2032 31.5196 39.6626 34.4094 35.6196L34.4868 35.5071C35.1477 34.5016 36.554 34.2626 37.6227 34.9868C38.6352 35.6477 38.8743 37.054 38.1501 38.1227L38.0727 38.2352C36.4626 40.429 36.7157 43.579 38.6774 45.5407C40.8852 47.7485 44.4782 47.7485 46.693 45.5407L54.5821 37.6446C56.7969 35.4298 56.7969 31.7805 54.5821 29.629C52.6274 27.6694 49.5337 27.4134 47.2837 29.0243L47.1712 29.1016C46.1587 29.8259 44.7524 29.5305 44.0352 28.5799C43.311 27.5688 43.543 26.1633 44.5555 25.4412L44.668 25.3624C48.711 22.4734 54.2516 22.9317 57.7673 26.4466Z" fill="white"/>
</svg>
