<svg width="64" height="64" viewBox="0 0 64 64" fill="none" xmlns="http://www.w3.org/2000/svg">
<circle cx="32" cy="32" r="32" fill="#ECECFE"/>
<g clip-path="url(#clip0_158_173)">
<path d="M44.189 23.5875L51.1407 30.5875C51.9165 31.3688 51.9165 32.6313 51.1407 33.4125L44.189 40.4125C43.4131 41.1938 42.1593 41.1938 41.3834 40.4125C40.6076 39.6313 40.6076 38.3688 41.3834 37.5875L46.9262 32L41.3834 26.4125C40.6076 25.6313 40.6076 24.3688 41.3834 23.5875C42.1593 22.8063 43.4131 22.8063 44.189 23.5875ZM22.3407 26.4125L16.7948 32L22.3407 37.5875C23.1166 38.3688 23.1166 39.6313 22.3407 40.4125C21.5648 41.1938 20.311 41.1938 19.5352 40.4125L12.5817 33.4125C11.8061 32.6313 11.8061 31.3688 12.5817 30.5875L19.5352 23.5875C20.311 22.8063 21.5648 22.8063 22.3407 23.5875C23.1166 24.3688 23.1166 25.6313 22.3407 26.4125Z" fill="#651FFF"/>
<path opacity="0.4" d="M37.7463 18.5494L29.8014 46.55C29.4973 47.6125 28.3987 48.225 27.3435 47.925C26.2883 47.6187 25.6801 46.5125 25.978 45.45L33.9228 17.4506C34.227 16.3885 35.3256 15.7735 36.3807 16.077C37.4359 16.3804 38.0442 17.4875 37.7463 18.5494Z" fill="#651FFF"/>
</g>
<defs>
<clipPath id="clip0_158_173">
<rect width="39.7241" height="32" fill="white" transform="translate(12 16)"/>
</clipPath>
</defs>
</svg>
