<svg width="34" height="34" viewBox="0 0 34 34" fill="none" xmlns="http://www.w3.org/2000/svg">
<g clip-path="url(#clip0_4_37)">
<rect x="2.125" y="4.25" width="29.75" height="25.5" fill="white"/>
<path d="M28.9695 28.97H23.9318V21.0806C23.9318 19.1993 23.8982 16.7774 21.3117 16.7774C18.6879 16.7774 18.2864 18.8273 18.2864 20.9436V28.9695H13.2488V12.7457H18.0849V14.9628H18.1526C18.6366 14.1353 19.336 13.4545 20.1763 12.993C21.0165 12.5315 21.9663 12.3065 22.9243 12.342C28.0303 12.342 28.9717 15.7006 28.9717 20.0699L28.9695 28.97ZM7.56441 10.5281C5.94981 10.5284 4.64067 9.21962 4.64041 7.60502C4.64014 5.99041 5.94874 4.68128 7.56334 4.68101C9.17795 4.68062 10.4871 5.98935 10.4873 7.60395C10.4875 8.37932 10.1796 9.12298 9.63146 9.67136C9.08331 10.2197 8.33977 10.5279 7.56441 10.5281ZM10.0833 28.9702H5.04031V12.7457H10.0832L10.0833 28.9702ZM31.481 0.00242877H2.5089C1.1396 -0.0129775 0.0166733 1.08392 -6.10352e-05 2.45322V31.5462C0.0161421 32.9162 1.13894 34.0141 2.50877 33.9998H31.481C32.8538 34.0168 33.9809 32.9188 33.9999 31.5462V2.45096C33.9804 1.07901 32.8531 -0.0177587 31.481 0.000170959" fill="#0A66C2"/>
</g>
<defs>
<clipPath id="clip0_4_37">
<rect width="34" height="34" fill="white"/>
</clipPath>
</defs>
</svg>
