<svg width="16" height="16" viewBox="0 0 16 16" fill="none" xmlns="http://www.w3.org/2000/svg">
<g clip-path="url(#clip0_3_30)">
<rect x="1" y="2" width="14" height="12" fill="white"/>
<path d="M13.6327 13.6329H11.262V9.92025C11.262 9.03494 11.2462 7.89525 10.029 7.89525C8.79425 7.89525 8.60531 8.85988 8.60531 9.85581V13.6327H6.23469V5.99794H8.5105V7.04131H8.54238C8.77013 6.65188 9.09925 6.33151 9.49468 6.11432C9.89011 5.89714 10.337 5.79127 10.7879 5.808C13.1907 5.808 13.6337 7.3885 13.6337 9.44463L13.6327 13.6329ZM3.55969 4.95438C2.79988 4.9545 2.18381 4.33863 2.18369 3.57881C2.18356 2.819 2.79938 2.20294 3.55919 2.20281C4.319 2.20263 4.93506 2.8185 4.93519 3.57831C4.93526 3.94319 4.79038 4.29315 4.53242 4.55121C4.27447 4.80927 3.92457 4.95429 3.55969 4.95438ZM4.74506 13.633H2.37188V5.99794H4.745L4.74506 13.633ZM14.8146 0.00112635H1.18063C0.536251 -0.00612365 0.00781396 0.510064 -6.10352e-05 1.15444V14.8453C0.00756396 15.4899 0.535939 16.0066 1.18056 15.9999H14.8146C15.4606 16.0079 15.991 15.4912 15.9999 14.8453V1.15338C15.9908 0.507751 15.4603 -0.00837365 14.8146 6.38463e-05" fill="#0A66C2"/>
</g>
<defs>
<clipPath id="clip0_3_30">
<rect width="16" height="16" fill="white"/>
</clipPath>
</defs>
</svg>
