<svg width="16" height="16" viewBox="0 0 16 16" fill="none" xmlns="http://www.w3.org/2000/svg">
<path fill-rule="evenodd" clip-rule="evenodd" d="M10.4246 11.4214C9.32626 12.3022 7.93193 12.8291 6.41453 12.8291C2.87188 12.8291 0 9.95718 0 6.41453C0 2.87188 2.87188 0 6.41453 0C9.95718 0 12.8291 2.87188 12.8291 6.41453C12.8291 7.9321 12.3021 9.32658 11.4211 10.425L16 15.0039L15.0035 16.0003L10.4246 11.4214ZM11.4198 6.41453C11.4198 9.17887 9.17887 11.4198 6.41453 11.4198C3.65019 11.4198 1.40925 9.17887 1.40925 6.41453C1.40925 3.65019 3.65019 1.40925 6.41453 1.40925C9.17887 1.40925 11.4198 3.65019 11.4198 6.41453Z" fill="#3C3C3C"/>
</svg>
