<svg width="13" height="14" viewBox="0 0 13 14" fill="none" xmlns="http://www.w3.org/2000/svg">
<g id="arrow-right-long 2" clip-path="url(#clip0_113_6257)">
<path id="Vector" d="M7.57202 10.5C7.57202 10.2761 7.64597 10.0521 7.79386 9.88144L10.2885 6.99995L7.79445 4.11792C7.49867 3.77612 7.49867 3.22241 7.79445 2.88062C8.09024 2.53882 8.56941 2.53882 8.8652 2.88062L11.894 6.38062C12.1898 6.72241 12.1898 7.27612 11.894 7.61792L8.8652 11.1179C8.56941 11.4597 8.09024 11.4597 7.79445 11.1179C7.64538 10.9484 7.57202 10.7242 7.57202 10.5Z" fill="#00E5FF"/>
<path id="Vector_2" opacity="0.4" d="M9.5314 7.875H0.757212C0.338616 7.875 0 7.48398 0 6.97539C0 6.4668 0.338616 6.125 0.757212 6.125H9.5314L10.2886 7L9.5314 7.875Z" fill="#00E5FF"/>
</g>
<defs>
<clipPath id="clip0_113_6257">
<rect width="12.1154" height="14" fill="white"/>
</clipPath>
</defs>
</svg>
