<svg width="64" height="64" viewBox="0 0 64 64" fill="none" xmlns="http://www.w3.org/2000/svg">
<circle cx="32" cy="32" r="32" fill="#ECECFE"/>
<g clip-path="url(#clip0_158_171)">
<path d="M28.8889 30.4444C28.1528 30.4444 27.5556 31.2428 27.5556 32.1722C27.5556 33.2 28.1556 34 28.8889 34C29.6222 34 30.2222 33.2 30.2222 32.2222C30.2222 31.2444 29.6278 30.4444 28.8889 30.4444ZM16 43.7778V45.5055C16 46.05 16.3958 46.4444 16.8889 46.4444H19.5556V42.9389H16.8889C16.3958 42.8889 16 43.2833 16 43.7778ZM47.1111 42.8889H44.4444V24.3055C44.4444 22.7917 43.25 21.5555 41.7778 21.5555L35.5556 21.5561V25.1111H40.8889V46.4444H47.1111C47.6042 46.4444 48 46.0486 48 45.6055V43.8778C48 43.2833 47.6056 42.8889 47.1111 42.8889Z" fill="#651FFF"/>
<path opacity="0.4" d="M31.5722 18.056L20.9055 20.8199C20.0611 21.0284 19.5555 21.7645 19.5555 22.6045V46.4445H33.7778V19.8406C33.7778 18.6461 32.6944 17.7643 31.5722 18.056ZM28.8889 34C28.1528 34 27.5555 33.2017 27.5555 32.2722C27.5555 31.2934 28.1528 30.5445 28.8889 30.5445C29.625 30.5445 30.2222 31.2445 30.2222 32.2222C30.2222 33.2 29.6278 34 28.8889 34Z" fill="#651FFF"/>
</g>
<defs>
<clipPath id="clip0_158_171">
<rect width="32" height="28.4444" fill="white" transform="translate(16 18)"/>
</clipPath>
</defs>
</svg>
